{"title":"Birdman Ft. Lil Wayne &amp; Mack Maine - Dark Shades [Explicit] ","uid":8923967,"size":232387976,"categoryP":"video","categoryS":"music_videos","magnet":"?xt=urn:btih:ac906099162c66b7794e6e881f45ff4e39ccd007&amp;dn=Birdman+Ft.+Lil+Wayne+%26amp%3B+Mack+Maine+-+Dark+Shades+%5BExplicit%5D+&amp;tr=udp%3A%2F%2Ftracker.openbittorrent.com%3A80&amp;tr=udp%3A%2F%2Fopen.demonii.com%3A1337&amp;tr=udp%3A%2F%2Ftracker.coppersurfer.tk%3A6969&amp;tr=udp%3A%2F%2Fexodus.desync.com%3A6969","seeders":1,"leechers":0,"uploader":"Sbyky","files":1,"time":1379322444,"description":"[IMG]http://cdn.piczend.com/images/vyBLcwJX/1379313611_dark%20shades.jpg[/IMG]\n\nGeneral\nComplete name                            : Birdman Ft. Lil Wayne &amp; Mack Maine - Dark Shades [Explicit] 1080p [Sbyky].mp4\nFormat                                   : MPEG-4\nFormat profile                           : Base Media / Version 2\nCodec ID                                 : mp42\nFile size                                : 222 MiB\nDuration                                 : 5mn 13s\nOverall bit rate mode                    : Variable\nOverall bit rate                         : 5 922 Kbps\nEncoded date                             : UTC 2012-05-24 02:13:49\nTagged date                              : UTC 2012-05-24 02:13:49\n\nVideo\nID                                       : 1\nFormat                                   : AVC\nFormat/Info                              : Advanced Video Codec\nFormat profile                           : &lt;a class=&quot;__cf_email__&quot; href=&quot;/cdn-cgi/l/email-protection&quot; data-cfemail=&quot;4d05242a250d0179637d&quot;&gt;[email&amp;#160;protected]&lt;/a&gt;&lt;script cf-hash='f9e31' type=&quot;text/javascript&quot;&gt;\n/* &lt;![CDATA[ */!function(){try{var t=&quot;currentScript&quot;in document?document.currentScript:function(){for(var t=document.getElementsByTagName(&quot;script&quot;),e=t.length;e--;)if(t[e].getAttribute(&quot;cf-hash&quot;))return t[e]}();if(t&amp;&amp;t.previousSibling){var e,r,n,i,c=t.previousSibling,a=c.getAttribute(&quot;data-cfemail&quot;);if(a){for(e=&quot;&quot;,r=parseInt(a.substr(0,2),16),n=2;a.length-n;n+=2)i=parseInt(a.substr(n,2),16)^r,e+=String.fromCharCode(i);e=document.createTextNode(e),c.parentNode.replaceChild(e,c)}}}catch(u){}}();/* ]]&gt; */&lt;/script&gt;\nFormat settings, CABAC                   : Yes\nFormat settings, ReFrames                : 1 frame\nCodec ID                                 : avc1\nCodec ID/Info                            : Advanced Video Coding\nDuration                                 : 5mn 13s\nBit rate                                 : 5 773 Kbps\nMaximum bit rate                         : 12.4 Mbps\nWidth                                    : 1 920 pixels\nHeight                                   : 1 080 pixels\nDisplay aspect ratio                     : 16:9\nFrame rate mode                          : Constant\nFrame rate                               : 24.000 fps\nColor space                              : YUV\nChroma subsampling                       : 4:2:0\nBit depth                                : 8 bits\nScan type                                : Progressive\nBits/(Pixel*Frame)                       : 0.116\nStream size                              : 216 MiB (97%)\nTagged date                              : UTC 2012-05-24 02:13:54\n\nAudio\nID                                       : 2\nFormat                                   : AAC\nFormat/Info                              : Advanced Audio Codec\nFormat profile                           : LC\nCodec ID                                 : 40\nDuration                                 : 5mn 13s\nBit rate mode                            : Variable\nBit rate                                 : 144 Kbps\nMaximum bit rate                         : 190 Kbps\nChannel(s)                               : 2 channels\nChannel positions                        : Front: L R\nSampling rate                            : 44.1 KHz\nCompression mode                         : Lossy\nStream size                              : 5.49 MiB (2%)\nTitle                                    : IsoMedia File Produced by Google, 5-11-2011\nEncoded date                             : UTC 2012-05-24 02:13:53\nTagged date                              : UTC 2012-05-24 02:13:54\n\nShared By Sbyky\n[IMG]http://cdn.piczend.com/images/liRi6Opy/1379259598_say%20thanks%20preaching%201.gif[/IMG]\n[IMG]http://cdn.piczend.com/images/HVuSYSI4/1379259626_seeding%20preaching%201.gif[/IMG]","torrent":{"xt":"urn:btih:ac906099162c66b7794e6e881f45ff4e39ccd007","amp;dn":"Birdman+Ft.+Lil+Wayne+%26amp%3B+Mack+Maine+-+Dark+Shades+%5BExplicit%5D+","amp;tr":["udp%3A%2F%2Ftracker.openbittorrent.com%3A80","udp%3A%2F%2Fopen.demonii.com%3A1337","udp%3A%2F%2Ftracker.coppersurfer.tk%3A6969","udp%3A%2F%2Fexodus.desync.com%3A6969"],"infoHash":"ac906099162c66b7794e6e881f45ff4e39ccd007","infoHashBuffer":{"type":"Buffer","data":[172,144,96,153,22,44,102,183,121,78,110,136,31,69,255,78,57,204,208,7]},"announce":[],"urlList":[]}}